<svg xmlns="http://www.w3.org/2000/svg" viewBox="0 0 512 512"><path fill="#4C4C4C" d="M311.563 257.193c0 17.598-3.418 33.181-10.249 46.75-6.835 13.574-16.566 25.037-29.2 34.395-12.636 9.362-27.894 16.474-45.768 21.339-17.877 4.87-37.765 7.301-59.666 7.301H70.655V0h105.011c81.799 0 122.7 29.763 122.7 89.288 0 19.843-4.729 36.878-14.179 51.102-9.454 14.228-24.85 24.805-46.189 31.727 9.92 1.874 19.326 5.055 28.22 9.547 8.887 4.492 16.705 10.296 23.445 17.408 6.738 7.115 12.073 15.539 16.004 25.27 3.931 9.736 5.896 20.686 5.896 32.851zM246.422 96.027c0-7.485-1.123-14.553-3.369-21.199-2.247-6.642-6.177-12.353-11.793-17.127s-13.197-8.564-22.744-11.372c-9.546-2.807-21.619-4.211-36.221-4.211h-51.663v114.838h49.979c11.415 0 21.76-1.215 31.026-3.65 9.266-2.43 17.219-6.177 23.866-11.231 6.642-5.054 11.793-11.371 15.443-18.952 3.652-7.583 5.476-16.611 5.476-27.096zm12.074 162.851c0-9.358-1.965-17.781-5.896-25.27-3.931-7.485-9.643-13.803-17.128-18.953-7.489-5.146-16.614-9.125-27.376-11.934-10.766-2.807-22.883-4.211-36.36-4.211h-51.102v126.35h52.786c28.64 0 49.979-5.335 64.018-16.005 14.038-10.668 21.058-27.326 21.058-49.977z"/><path fill="#389E30" d="M440.996 213.483c-2.069-17.517-8.826-40.868-21.007-54.46-6.953-7.758-20.854-19.607-35.218-23.832-18.006-5.296-48.427-1.888-57.461-.794-92.591 11.21-137.695 104.331-137.695 104.331s-34.424-16.418-66.465-52.96v37.337c28.333 28.069 51.636 40.514 51.636 40.514s-26.444 66.47-29.922 91.62c-13.77 99.564-12.335 126.924-3.972 144.845 3.707 7.944 17.742 11.916 17.742 11.916s0-30.452-.265-31.246-8.247-1.828-13.014-7.653c-7.622-9.315.214-78.401 5.334-103.297 7.679-37.337 42.103-99.829 42.103-99.829s54.366 63.832 87.648 116.512c7.035 11.135 25.341 43.937 41.132 72.731 12.004 21.89 34.954 33.126 53.401 32.923 8.032-.088 21.537-7.503 21.537-7.503l-.883-42.28s-15.997 25.453-24.891 25.421c-24.009-.088-42.143-33.958-52.607-53.578-23.302-43.692-97.799-134.959-97.799-134.959s20.946 9.8 28.333 11.916c48.988 14.034 108.921 7.591 126.662 2.295 39.243-11.714 69.643-46.34 65.671-79.97zm-45.546 47.399c-85.379 29.065-189.155-14.211-189.155-14.211s102.83-131.693 199.394-71.496c10.936 6.818 25.774 23.655 27.098 41.045 1.685 22.137-24.891 40.426-37.337 44.662z"/></svg>